<svg width="161" height="89" viewBox="0 0 161 89" fill="none" xmlns="http://www.w3.org/2000/svg">
<path d="M22.5002 5.98189C22.2033 5.98189 21.9167 5.93661 21.647 5.85266V9.91937H23.3533V5.85266C23.0836 5.93673 22.7971 5.98189 22.5002 5.98189Z" fill="#135693"/>
<path d="M22.5 6.09642C24.1517 6.09642 25.4906 4.75749 25.4906 3.10583C25.4906 1.45417 24.1517 0.115234 22.5 0.115234C20.8484 0.115234 19.5094 1.45417 19.5094 3.10583C19.5094 4.75749 20.8484 6.09642 22.5 6.09642Z" fill="#6BC1DD"/>
<g opacity="0.15">
<path opacity="0.15" d="M22.0267 3.10583C22.0267 1.90402 22.7359 0.868286 23.7587 0.392908C23.3759 0.21511 22.9498 0.115234 22.5 0.115234C20.8483 0.115234 19.5094 1.45423 19.5094 3.10583C19.5094 4.75742 20.8483 6.0963 22.5 6.0963C22.9498 6.0963 23.3759 5.99643 23.7587 5.81863C22.7359 5.34337 22.0267 4.30764 22.0267 3.10583Z" fill="#440075"/>
</g>
<path d="M41.562 14.5879H39.7985V30.8568H41.562C42.5288 30.8568 43.3199 30.0658 43.3199 29.099V16.3456C43.3199 15.3789 42.5288 14.5879 41.562 14.5879Z" fill="#9EA7AF"/>
<path d="M5.20129 14.5876H3.32139C2.35459 14.5876 1.56366 15.3787 1.56366 16.3454V29.0987C1.56366 30.0655 2.35459 30.8564 3.32139 30.8564H5.20117L5.20129 14.5876Z" fill="#9EA7AF"/>
<path d="M6.4 52.1416H3.98432C3.1596 52.1416 2.39347 51.891 1.75781 51.4618V57.1859C1.75781 57.8304 2.28518 58.3578 2.92971 58.3578H6.4V52.1416Z" fill="#C5CCD3"/>
<path d="M41.0155 52.1411H38.5999V58.3574H42.0702C42.7148 58.3574 43.2421 57.8301 43.2421 57.1855V51.4615C42.6064 51.8905 41.8402 52.1411 41.0155 52.1411Z" fill="#C5CCD3"/>
<path opacity="0.15" d="M4.21877 57.1858V52.1413H3.98432C3.1596 52.1413 2.39347 51.8907 1.75781 51.4615V57.1856C1.75781 57.8302 2.28518 58.3575 2.92971 58.3575H5.39066C4.74613 58.3577 4.21877 57.8303 4.21877 57.1858Z" fill="#440075"/>
<path d="M6.40003 43.1824H3.98435C1.78389 43.1824 0 44.9663 0 47.1667V48.3386C0 50.5391 1.784 52.3228 3.98435 52.3228H6.39991L6.40003 43.1824Z" fill="#E6E9ED"/>
<path d="M41.0155 43.1816H38.5999V52.3222H41.0155C43.2161 52.3222 44.9999 50.5383 44.9999 48.338V47.1661C44.9999 44.9654 43.216 43.1816 41.0155 43.1816Z" fill="#E6E9ED"/>
<g opacity="0.15">
<path opacity="0.15" d="M2.81257 48.338V47.1661C2.81257 44.9655 4.59646 43.1818 6.79691 43.1818H3.98435C1.78389 43.1818 0 44.9657 0 47.1661V48.338C0 50.5385 1.784 52.3222 3.98435 52.3222H6.79691C4.59634 52.3222 2.81257 50.5385 2.81257 48.338Z" fill="#440075"/>
</g>
<path d="M26.3902 35.3853H18.6106V38.2924H26.3902V35.3853Z" fill="#9EA7AF"/>
<path opacity="0.15" d="M21.4455 35.3853H18.6106V38.2924H21.4455V35.3853Z" fill="#440075"/>
<path d="M31.651 41.0662V39.175C31.651 38.6192 31.1963 38.1644 30.6405 38.1644H14.0182C13.4622 38.1644 13.0074 38.6192 13.0074 39.175V41.0662H31.651Z" fill="#C5CCD3"/>
<path opacity="0.15" d="M16.5123 41.0662V39.175C16.5123 38.6192 16.9671 38.1644 17.5231 38.1644H14.0182C13.4622 38.1644 13.0074 38.6192 13.0074 39.175V41.0662H16.5123Z" fill="#440075"/>
<path d="M36.9556 40.8676H8.04385C7.07706 40.8676 6.28601 41.6586 6.28601 42.6254V58.3578H38.7134V42.6254C38.7134 41.6586 37.9225 40.8676 36.9556 40.8676Z" fill="#9EA7AF"/>
<g opacity="0.15">
<path opacity="0.15" d="M11.4004 40.8676H8.04385C7.07706 40.8676 6.28601 41.6586 6.28601 42.6254V58.3578H9.64255V42.6254C9.64255 41.6586 10.4336 40.8676 11.4004 40.8676Z" fill="#440075"/>
</g>
<path d="M39.9122 33.7616C39.9122 34.7284 39.1212 35.5193 38.1545 35.5193H6.84507C5.87839 35.5193 5.08734 34.7284 5.08734 33.7616V11.5635C5.08734 10.5967 5.87839 9.80579 6.84507 9.80579H38.1545C39.1212 9.80579 39.9122 10.5967 39.9122 11.5635V33.7616Z" fill="#C5CCD3"/>
<g opacity="0.15">
<path opacity="0.15" d="M8.43728 33.7616V11.5635C8.43728 10.5967 9.22833 9.80579 10.1951 9.80579H6.84507C5.87839 9.80579 5.08734 10.5967 5.08734 11.5635V33.7617C5.08734 34.7285 5.87839 35.5194 6.84507 35.5194H10.1951C9.22833 35.5193 8.43728 34.7284 8.43728 33.7616Z" fill="#440075"/>
</g>
<path d="M35.7526 22.6954C35.7526 26.0488 33.0342 28.7667 29.6811 28.7667H15.3186C11.9653 28.7667 9.24701 26.0487 9.24701 22.6954C9.24701 19.3422 11.9653 16.6241 15.3186 16.6241H29.6811C33.0342 16.6241 35.7526 19.3422 35.7526 22.6954Z" fill="#135693"/>
<g opacity="0.15">
<path opacity="0.15" d="M12.6561 22.6954C12.6561 19.3422 15.3744 16.6241 18.7277 16.6241H15.3186C11.9653 16.6241 9.24701 19.3423 9.24701 22.6954C9.24701 26.0488 11.9653 28.7667 15.3186 28.7667H18.7277C15.3744 28.7667 12.6561 26.0487 12.6561 22.6954Z" fill="#440075"/>
</g>
<path d="M14.7123 25.0682C16.0162 25.0682 17.0731 24.0071 17.0731 22.6981C17.0731 21.389 16.0162 20.3279 14.7123 20.3279C13.4084 20.3279 12.3514 21.389 12.3514 22.6981C12.3514 24.0071 13.4084 25.0682 14.7123 25.0682Z" fill="#6BC1DD"/>
<path d="M30.3331 25.0669C31.637 25.0669 32.694 24.0057 32.694 22.6967C32.694 21.3877 31.637 20.3265 30.3331 20.3265C29.0292 20.3265 27.9723 21.3877 27.9723 22.6967C27.9723 24.0057 29.0292 25.0669 30.3331 25.0669Z" fill="#6BC1DD"/>
<path d="M32.9737 58.3568V48.1405C32.9737 47.496 32.4463 46.9686 31.8018 46.9686H13.1984C12.5539 46.9686 12.0266 47.496 12.0266 48.1405V58.3568H32.9737Z" fill="#135693"/>
<path d="M24.6093 58.3567V55.0617C24.6093 54.8683 24.4511 54.7101 24.2578 54.7101H20.7421C20.5489 54.7101 20.3906 54.8683 20.3906 55.0617V58.3567H24.6093Z" fill="#FFC502"/>
<path d="M17.578 50.6367H14.8828C14.4115 50.6367 14.0296 50.2549 14.0296 49.7836C14.0296 49.3123 14.4115 48.9304 14.8828 48.9304H17.578C18.0493 48.9304 18.4312 49.3123 18.4312 49.7836C18.4312 50.2547 18.0493 50.6367 17.578 50.6367Z" fill="#C5CCD3"/>
<path d="M16.4063 52.718H14.8828C14.4115 52.718 14.0297 52.3362 14.0297 51.8649C14.0297 51.3936 14.4115 51.0117 14.8828 51.0117H16.4063C16.8776 51.0117 17.2595 51.3936 17.2595 51.8649C17.2595 52.3362 16.8775 52.718 16.4063 52.718Z" fill="#C5CCD3"/>
<path d="M17.5781 54.8024H14.8828C14.4115 54.8024 14.0297 54.4204 14.0297 53.9492C14.0297 53.4779 14.4115 53.0961 14.8828 53.0961H17.5781C18.0494 53.0961 18.4313 53.4779 18.4313 53.9492C18.4313 54.4205 18.0494 54.8024 17.5781 54.8024Z" fill="#C5CCD3"/>
<path d="M16.0547 56.884H14.8828C14.4115 56.884 14.0297 56.5022 14.0297 56.0309C14.0297 55.5597 14.4115 55.1777 14.8828 55.1777H16.0547C16.526 55.1777 16.9079 55.5597 16.9079 56.0309C16.9079 56.5022 16.5259 56.884 16.0547 56.884Z" fill="#C5CCD3"/>
<path d="M29.7301 56.0281H27.6498C27.1562 56.0281 26.7562 55.6281 26.7562 55.1344C26.7562 54.6407 27.1563 54.2407 27.6498 54.2407H29.7301C30.2237 54.2407 30.6239 54.6408 30.6239 55.1344C30.6239 55.6282 30.2237 56.0281 29.7301 56.0281Z" fill="#E6E9ED"/>
<path d="M28.6906 52.9309C29.7272 52.9309 30.5675 52.0905 30.5675 51.0539C30.5675 50.0173 29.7272 49.177 28.6906 49.177C27.654 49.177 26.8137 50.0173 26.8137 51.0539C26.8137 52.0905 27.654 52.9309 28.6906 52.9309Z" fill="#5DC647"/>
<path d="M24.6615 52.0366C24.6615 52.2348 24.4994 52.3968 24.3013 52.3968H20.699C20.5009 52.3968 20.3388 52.2348 20.3388 52.0366V50.0728C20.3388 49.8746 20.5009 49.7125 20.699 49.7125H24.3013C24.4994 49.7125 24.6615 49.8746 24.6615 50.0728V52.0366Z" fill="#6BC1DD"/>
<path d="M9.9898 83.1895L8.85183 80.025H4.49482L3.38024 83.1895H1.41608L5.67955 71.7474H7.70607L11.9695 83.1895H9.9898ZM8.36079 78.4193L7.29297 75.3172C7.21503 75.1094 7.10591 74.782 6.96561 74.3351C6.83051 73.8883 6.73698 73.5609 6.68502 73.3531C6.54472 73.9922 6.33947 74.6911 6.06927 75.4497L5.04042 78.4193H8.36079ZM17.6516 74.4131C18.0205 74.4131 18.3245 74.4391 18.5635 74.491L18.3842 76.198C18.1244 76.1356 17.8542 76.1044 17.5736 76.1044C16.841 76.1044 16.246 76.3435 15.7887 76.8215C15.3367 77.2996 15.1106 77.9205 15.1106 78.6844V83.1895H13.279V74.569H14.7131L14.9548 76.0889H15.0483C15.3341 75.5744 15.7056 75.1665 16.1629 74.8652C16.6253 74.5638 17.1216 74.4131 17.6516 74.4131ZM23.3804 81.8644C23.8273 81.8644 24.2741 81.7943 24.721 81.654V83.0336C24.5184 83.1219 24.2559 83.1946 23.9338 83.2518C23.6168 83.3142 23.2869 83.3453 22.9439 83.3453C21.2084 83.3453 20.3406 82.4308 20.3406 80.6017V75.9564H19.1637V75.1457L20.4264 74.4754L21.0499 72.6516H22.1801V74.569H24.6353V75.9564H22.1801V80.5706C22.1801 81.0122 22.2892 81.3396 22.5074 81.5527C22.7309 81.7605 23.0219 81.8644 23.3804 81.8644ZM28.283 83.1895H26.4513V74.569H28.283V83.1895ZM26.3422 72.2852C26.3422 71.9579 26.4306 71.7059 26.6072 71.5292C26.7891 71.3525 27.0463 71.2642 27.3789 71.2642C27.701 71.2642 27.9504 71.3525 28.1271 71.5292C28.309 71.7059 28.3999 71.9579 28.3999 72.2852C28.3999 72.597 28.309 72.8438 28.1271 73.0257C27.9504 73.2024 27.701 73.2907 27.3789 73.2907C27.0463 73.2907 26.7891 73.2024 26.6072 73.0257C26.4306 72.8438 26.3422 72.597 26.3422 72.2852ZM35.2355 75.9564H33.131V83.1895H31.2916V75.9564H29.873V75.099L31.2916 74.5378V73.9766C31.2916 72.9581 31.5306 72.2047 32.0087 71.7163C32.4867 71.2226 33.2168 70.9758 34.1989 70.9758C34.8432 70.9758 35.4771 71.0823 36.1007 71.2954L35.6174 72.6827C35.1654 72.5373 34.7341 72.4645 34.3236 72.4645C33.9079 72.4645 33.6039 72.5944 33.4116 72.8542C33.2246 73.1088 33.131 73.4934 33.131 74.0078V74.569H35.2355V75.9564ZM38.5325 83.1895H36.7008V74.569H38.5325V83.1895ZM36.5917 72.2852C36.5917 71.9579 36.68 71.7059 36.8567 71.5292C37.0386 71.3525 37.2958 71.2642 37.6284 71.2642C37.9505 71.2642 38.1999 71.3525 38.3766 71.5292C38.5585 71.7059 38.6494 71.9579 38.6494 72.2852C38.6494 72.597 38.5585 72.8438 38.3766 73.0257C38.1999 73.2024 37.9505 73.2907 37.6284 73.2907C37.2958 73.2907 37.0386 73.2024 36.8567 73.0257C36.68 72.8438 36.5917 72.597 36.5917 72.2852ZM44.6432 83.3453C43.339 83.3453 42.3465 82.966 41.6658 82.2074C40.9903 81.4435 40.6525 80.3497 40.6525 78.926C40.6525 77.4762 41.0059 76.3617 41.7126 75.5822C42.4244 74.8028 43.4507 74.4131 44.7913 74.4131C45.7006 74.4131 46.519 74.582 47.2465 74.9197L46.6931 76.3928C45.9189 76.0915 45.2797 75.9408 44.7757 75.9408C43.2844 75.9408 42.5388 76.9306 42.5388 78.9104C42.5388 79.8769 42.7232 80.6043 43.0922 81.0928C43.4663 81.576 44.0119 81.8177 44.729 81.8177C45.5448 81.8177 46.3164 81.615 47.0439 81.2097V82.8075C46.7165 82.9998 46.3658 83.1375 45.9916 83.2206C45.6227 83.3038 45.1732 83.3453 44.6432 83.3453ZM50.902 83.1895H49.0704V74.569H50.902V83.1895ZM48.9613 72.2852C48.9613 71.9579 49.0496 71.7059 49.2263 71.5292C49.4081 71.3525 49.6653 71.2642 49.9979 71.2642C50.3201 71.2642 50.5695 71.3525 50.7461 71.5292C50.928 71.7059 51.0189 71.9579 51.0189 72.2852C51.0189 72.597 50.928 72.8438 50.7461 73.0257C50.5695 73.2024 50.3201 73.2907 49.9979 73.2907C49.6653 73.2907 49.4081 73.2024 49.2263 73.0257C49.0496 72.8438 48.9613 72.597 48.9613 72.2852ZM58.9224 83.1895L58.556 81.9891H58.4937C58.078 82.5139 57.6597 82.8725 57.2388 83.0647C56.8179 83.2518 56.2775 83.3453 55.6176 83.3453C54.7706 83.3453 54.1081 83.1167 53.63 82.6594C53.1572 82.2022 52.9208 81.5553 52.9208 80.7187C52.9208 79.8301 53.2507 79.1598 53.9106 78.7077C54.5705 78.2557 55.576 78.0088 56.927 77.9673L58.4157 77.9205V77.4606C58.4157 76.9099 58.2858 76.4994 58.026 76.2292C57.7714 75.9538 57.3739 75.8161 56.8335 75.8161C56.3918 75.8161 55.9683 75.881 55.563 76.0109C55.1577 76.1408 54.768 76.2941 54.3939 76.4708L53.8015 75.1613C54.2692 74.9171 54.781 74.7326 55.337 74.6079C55.893 74.478 56.4178 74.4131 56.9114 74.4131C58.0078 74.4131 58.834 74.6521 59.39 75.1302C59.9512 75.6082 60.2318 76.3591 60.2318 77.3827V83.1895H58.9224ZM56.1944 81.9424C56.8595 81.9424 57.3921 81.7579 57.7922 81.389C58.1975 81.0148 58.4001 80.4926 58.4001 79.8223V79.0741L57.2934 79.1208C56.4308 79.152 55.802 79.2975 55.4071 79.5573C55.0174 79.8119 54.8226 80.2042 54.8226 80.7343C54.8226 81.1188 54.9369 81.4176 55.1655 81.6306C55.3941 81.8384 55.7371 81.9424 56.1944 81.9424ZM64.62 83.1895H62.7883V71.0615H64.62V83.1895ZM71.5881 83.1895V71.7942H73.4509V83.1895H71.5881ZM83.8563 83.1895H82.0168V77.8893C82.0168 77.2242 81.8817 76.728 81.6115 76.4006C81.3465 76.0733 80.923 75.9096 80.3411 75.9096C79.5668 75.9096 79.0004 76.1382 78.6419 76.5955C78.2834 77.0527 78.1041 77.8192 78.1041 78.8948V83.1895H76.2724V74.569H77.7066L77.9638 75.6991H78.0573C78.3171 75.2886 78.6861 74.9717 79.1641 74.7482C79.6422 74.5248 80.1722 74.4131 80.7542 74.4131C82.8222 74.4131 83.8563 75.4653 83.8563 77.5698V83.1895ZM89.6163 81.8644C90.0632 81.8644 90.51 81.7943 90.9569 81.654V83.0336C90.7542 83.1219 90.4918 83.1946 90.1697 83.2518C89.8527 83.3142 89.5227 83.3453 89.1798 83.3453C87.4443 83.3453 86.5765 82.4308 86.5765 80.6017V75.9564H85.3996V75.1457L86.6622 74.4754L87.2858 72.6516H88.416V74.569H90.8712V75.9564H88.416V80.5706C88.416 81.0122 88.5251 81.3396 88.7433 81.5527C88.9668 81.7605 89.2577 81.8644 89.6163 81.8644ZM96.4519 83.3453C95.1113 83.3453 94.0616 82.9556 93.303 82.1762C92.5495 81.3916 92.1728 80.3134 92.1728 78.9416C92.1728 77.5334 92.5235 76.4266 93.225 75.6212C93.9265 74.8158 94.8904 74.4131 96.1167 74.4131C97.2547 74.4131 98.1536 74.7586 98.8135 75.4497C99.4735 76.1408 99.8034 77.0917 99.8034 78.3024V79.2923H94.059C94.085 80.1289 94.311 80.7732 94.7371 81.2253C95.1632 81.6722 95.7634 81.8956 96.5376 81.8956C97.0468 81.8956 97.5197 81.8488 97.9562 81.7553C98.3978 81.6566 98.8707 81.4955 99.3747 81.2721V82.7608C98.9279 82.9738 98.4758 83.1245 98.0185 83.2128C97.5613 83.3012 97.039 83.3453 96.4519 83.3453ZM96.1167 75.8005C95.5347 75.8005 95.0671 75.9849 94.7137 76.3539C94.3656 76.7228 94.1577 77.2606 94.0902 77.9673H98.0029C97.9925 77.2554 97.8211 76.7176 97.4885 76.3539C97.156 75.9849 96.6987 75.8005 96.1167 75.8005ZM103.716 83.1895H101.884V71.0615H103.716V83.1895ZM108.174 83.1895H106.343V71.0615H108.174V83.1895ZM112.633 83.1895H110.801V74.569H112.633V83.1895ZM110.692 72.2852C110.692 71.9579 110.78 71.7059 110.957 71.5292C111.139 71.3525 111.396 71.2642 111.729 71.2642C112.051 71.2642 112.3 71.3525 112.477 71.5292C112.659 71.7059 112.75 71.9579 112.75 72.2852C112.75 72.597 112.659 72.8438 112.477 73.0257C112.3 73.2024 112.051 73.2907 111.729 73.2907C111.396 73.2907 111.139 73.2024 110.957 73.0257C110.78 72.8438 110.692 72.597 110.692 72.2852ZM122.539 74.569V75.5744L121.066 75.8472C121.201 76.0291 121.313 76.2525 121.401 76.5175C121.49 76.7825 121.534 77.0631 121.534 77.3593C121.534 78.2479 121.227 78.9468 120.614 79.456C120.001 79.9652 119.157 80.2198 118.081 80.2198C117.806 80.2198 117.556 80.199 117.333 80.1575C116.938 80.4017 116.74 80.6875 116.74 81.0148C116.74 81.2123 116.831 81.3604 117.013 81.4591C117.2 81.5578 117.541 81.6072 118.034 81.6072H119.539C120.489 81.6072 121.212 81.8099 121.705 82.2152C122.199 82.6205 122.446 83.205 122.446 83.9689C122.446 84.9458 122.043 85.6992 121.238 86.2292C120.432 86.7592 119.268 87.0242 117.746 87.0242C116.572 87.0242 115.675 86.8164 115.057 86.4007C114.438 85.985 114.129 85.3926 114.129 84.6236C114.129 84.0936 114.296 83.6467 114.628 83.283C114.966 82.9244 115.436 82.675 116.039 82.5347C115.795 82.4308 115.592 82.2645 115.431 82.0359C115.275 81.8021 115.197 81.5578 115.197 81.3032C115.197 80.9811 115.288 80.7083 115.47 80.4848C115.652 80.2614 115.922 80.0406 116.281 79.8223C115.834 79.6301 115.47 79.3183 115.189 78.887C114.914 78.4505 114.776 77.9413 114.776 77.3593C114.776 76.424 115.07 75.6991 115.657 75.1847C116.249 74.6703 117.091 74.4131 118.182 74.4131C118.427 74.4131 118.681 74.4313 118.946 74.4676C119.216 74.4988 119.419 74.5326 119.554 74.569H122.539ZM115.766 84.5301C115.766 84.925 115.943 85.229 116.296 85.442C116.655 85.655 117.156 85.7616 117.8 85.7616C118.798 85.7616 119.541 85.6187 120.03 85.3329C120.518 85.0471 120.762 84.6678 120.762 84.1949C120.762 83.8208 120.627 83.5532 120.357 83.3921C120.092 83.2362 119.596 83.1583 118.868 83.1583H117.481C116.956 83.1583 116.538 83.2804 116.226 83.5246C115.919 83.774 115.766 84.1092 115.766 84.5301ZM116.553 77.3593C116.553 77.8997 116.691 78.3154 116.966 78.6064C117.247 78.8974 117.647 79.0429 118.167 79.0429C119.227 79.0429 119.757 78.4765 119.757 77.3437C119.757 76.7825 119.624 76.3513 119.359 76.0499C119.099 75.7433 118.702 75.59 118.167 75.59C117.637 75.59 117.234 75.7407 116.959 76.0421C116.688 76.3435 116.553 76.7825 116.553 77.3593ZM127.91 83.3453C126.569 83.3453 125.519 82.9556 124.761 82.1762C124.007 81.3916 123.631 80.3134 123.631 78.9416C123.631 77.5334 123.981 76.4266 124.683 75.6212C125.384 74.8158 126.348 74.4131 127.574 74.4131C128.712 74.4131 129.611 74.7586 130.271 75.4497C130.931 76.1408 131.261 77.0917 131.261 78.3024V79.2923H125.517C125.543 80.1289 125.769 80.7732 126.195 81.2253C126.621 81.6722 127.221 81.8956 127.995 81.8956C128.505 81.8956 128.977 81.8488 129.414 81.7553C129.856 81.6566 130.328 81.4955 130.832 81.2721V82.7608C130.386 82.9738 129.934 83.1245 129.476 83.2128C129.019 83.3012 128.497 83.3453 127.91 83.3453ZM127.574 75.8005C126.993 75.8005 126.525 75.9849 126.172 76.3539C125.823 76.7228 125.616 77.2606 125.548 77.9673H129.461C129.45 77.2554 129.279 76.7176 128.946 76.3539C128.614 75.9849 128.156 75.8005 127.574 75.8005ZM140.926 83.1895H139.087V77.8893C139.087 77.2242 138.952 76.728 138.681 76.4006C138.416 76.0733 137.993 75.9096 137.411 75.9096C136.637 75.9096 136.07 76.1382 135.712 76.5955C135.353 77.0527 135.174 77.8192 135.174 78.8948V83.1895H133.342V74.569H134.776L135.034 75.6991H135.127C135.387 75.2886 135.756 74.9717 136.234 74.7482C136.712 74.5248 137.242 74.4131 137.824 74.4131C139.892 74.4131 140.926 75.4653 140.926 77.5698V83.1895ZM146.951 83.3453C145.647 83.3453 144.654 82.966 143.974 82.2074C143.298 81.4435 142.96 80.3497 142.96 78.926C142.96 77.4762 143.314 76.3617 144.02 75.5822C144.732 74.8028 145.759 74.4131 147.099 74.4131C148.009 74.4131 148.827 74.582 149.554 74.9197L149.001 76.3928C148.227 76.0915 147.588 75.9408 147.084 75.9408C145.592 75.9408 144.847 76.9306 144.847 78.9104C144.847 79.8769 145.031 80.6043 145.4 81.0928C145.774 81.576 146.32 81.8177 147.037 81.8177C147.853 81.8177 148.624 81.615 149.352 81.2097V82.8075C149.024 82.9998 148.674 83.1375 148.299 83.2206C147.931 83.3038 147.481 83.3453 146.951 83.3453ZM155.143 83.3453C153.802 83.3453 152.753 82.9556 151.994 82.1762C151.241 81.3916 150.864 80.3134 150.864 78.9416C150.864 77.5334 151.215 76.4266 151.916 75.6212C152.618 74.8158 153.581 74.4131 154.808 74.4131C155.946 74.4131 156.845 74.7586 157.505 75.4497C158.164 76.1408 158.494 77.0917 158.494 78.3024V79.2923H152.75C152.776 80.1289 153.002 80.7732 153.428 81.2253C153.854 81.6722 154.454 81.8956 155.229 81.8956C155.738 81.8956 156.211 81.8488 156.647 81.7553C157.089 81.6566 157.562 81.4955 158.066 81.2721V82.7608C157.619 82.9738 157.167 83.1245 156.71 83.2128C156.252 83.3012 155.73 83.3453 155.143 83.3453ZM154.808 75.8005C154.226 75.8005 153.758 75.9849 153.405 76.3539C153.057 76.7228 152.849 77.2606 152.781 77.9673H156.694C156.684 77.2554 156.512 76.7176 156.18 76.3539C155.847 75.9849 155.39 75.8005 154.808 75.8005Z" fill="#3A68B8"/>
</svg>
