<svg width="284" height="57" viewBox="0 0 284 57" fill="none" xmlns="http://www.w3.org/2000/svg">
<path d="M22.0202 5.74219C21.7296 5.74219 21.4492 5.69788 21.1852 5.61572V9.5957H22.8552V5.61572C22.5912 5.69799 22.3108 5.74219 22.0202 5.74219Z" fill="#135693"/>
<path d="M22.0201 5.85363C23.6366 5.85363 24.947 4.54325 24.947 2.92682C24.947 1.31038 23.6366 0 22.0201 0C20.4037 0 19.0933 1.31038 19.0933 2.92682C19.0933 4.54325 20.4037 5.85363 22.0201 5.85363Z" fill="#6BC1DD"/>
<g opacity="0.15">
<path opacity="0.15" d="M21.5569 2.92682C21.5569 1.75063 22.251 0.736992 23.252 0.271752C22.8774 0.0977461 22.4603 0 22.0201 0C20.4037 0 19.0933 1.31044 19.0933 2.92682C19.0933 4.54319 20.4037 5.85352 22.0201 5.85352C22.4603 5.85352 22.8774 5.75577 23.252 5.58177C22.251 5.11664 21.5569 4.103 21.5569 2.92682Z" fill="#440075"/>
</g>
<path d="M40.6761 14.1637H38.9501V30.0856H40.6761C41.6222 30.0856 42.3964 29.3116 42.3964 28.3654V15.8839C42.3964 14.9379 41.6222 14.1637 40.6761 14.1637Z" fill="#9EA7AF"/>
<path d="M5.09045 14.1642H3.25064C2.30446 14.1642 1.5304 14.9384 1.5304 15.8844V28.3658C1.5304 29.3119 2.30446 30.086 3.25064 30.086H5.09033L5.09045 14.1642Z" fill="#9EA7AF"/>
<path d="M6.26353 50.9165H3.89936C3.09223 50.9165 2.34244 50.6713 1.72034 50.2512V55.8532C1.72034 56.484 2.23645 57.0001 2.86724 57.0001H6.26353V50.9165Z" fill="#C5CCD3"/>
<path d="M40.1411 50.9163H37.777V57H41.1733C41.8041 57 42.3202 56.4839 42.3202 55.8531V50.2512C41.698 50.671 40.9482 50.9163 40.1411 50.9163Z" fill="#C5CCD3"/>
<path opacity="0.15" d="M4.12881 55.8532V50.9164H3.89936C3.09223 50.9164 2.34244 50.6711 1.72034 50.2511V55.8531C1.72034 56.4839 2.23645 57 2.86724 57H5.27571C4.64493 57.0001 4.12881 56.484 4.12881 55.8532Z" fill="#440075"/>
<path d="M6.26354 42.149H3.89938C1.74585 42.149 0 43.8949 0 46.0484V47.1953C0 49.3489 1.74596 51.0946 3.89938 51.0946H6.26343L6.26354 42.149Z" fill="#E6E9ED"/>
<path d="M40.141 42.1477H37.7769V51.0934H40.141C42.2946 51.0934 44.0403 49.3475 44.0403 47.1941V46.0472C44.0403 43.8934 42.2945 42.1477 40.141 42.1477Z" fill="#E6E9ED"/>
<g opacity="0.15">
<path opacity="0.15" d="M2.75259 47.1941V46.0472C2.75259 43.8936 4.49843 42.1478 6.65196 42.1478H3.89938C1.74585 42.1478 0 43.8937 0 46.0472V47.1941C0 49.3476 1.74596 51.0934 3.89938 51.0934H6.65196C4.49832 51.0934 2.75259 49.3476 2.75259 47.1941Z" fill="#440075"/>
</g>
<path d="M25.8275 34.5173H18.2138V37.3624H25.8275V34.5173Z" fill="#9EA7AF"/>
<path opacity="0.15" d="M20.9882 34.5173H18.2138V37.3624H20.9882V34.5173Z" fill="#440075"/>
<path d="M30.9764 40.078V38.2272C30.9764 37.6832 30.5313 37.2382 29.9873 37.2382H13.7195C13.1754 37.2382 12.7303 37.6832 12.7303 38.2272V40.078H30.9764Z" fill="#C5CCD3"/>
<path opacity="0.15" d="M16.1605 40.078V38.2272C16.1605 37.6832 16.6056 37.2382 17.1497 37.2382H13.7195C13.1754 37.2382 12.7303 37.6832 12.7303 38.2272V40.078H16.1605Z" fill="#440075"/>
<path d="M36.1677 39.8829H7.87257C6.9264 39.8829 6.15222 40.6571 6.15222 41.6033V57.0002H37.8881V41.6033C37.8881 40.6571 37.114 39.8829 36.1677 39.8829Z" fill="#9EA7AF"/>
<g opacity="0.15">
<path opacity="0.15" d="M11.1575 39.8829H7.87257C6.9264 39.8829 6.15222 40.6571 6.15222 41.6033V57.0002H9.43718V41.6033C9.43718 40.6571 10.2114 39.8829 11.1575 39.8829Z" fill="#440075"/>
</g>
<path d="M39.0613 32.9293C39.0613 33.8755 38.2872 34.6495 37.3411 34.6495H6.69937C5.7533 34.6495 4.97913 33.8755 4.97913 32.9293V11.2046C4.97913 10.2584 5.7533 9.48438 6.69937 9.48438H37.3411C38.2872 9.48438 39.0613 10.2584 39.0613 11.2046V32.9293Z" fill="#C5CCD3"/>
<g opacity="0.15">
<path opacity="0.15" d="M8.25763 32.9293V11.2046C8.25763 10.2584 9.0318 9.48438 9.97798 9.48438H6.69937C5.7533 9.48438 4.97913 10.2584 4.97913 11.2046V32.9294C4.97913 33.8756 5.7533 34.6496 6.69937 34.6496H9.97798C9.0318 34.6495 8.25763 33.8755 8.25763 32.9293Z" fill="#440075"/>
</g>
<path d="M34.9903 22.0994C34.9903 25.3812 32.3299 28.0412 29.0482 28.0412H14.9921C11.7102 28.0412 9.04993 25.3811 9.04993 22.0994C9.04993 18.8177 11.7102 16.1576 14.9921 16.1576H29.0482C32.3299 16.1576 34.9903 18.8177 34.9903 22.0994Z" fill="#135693"/>
<g opacity="0.15">
<path opacity="0.15" d="M12.3863 22.0994C12.3863 18.8177 15.0466 16.1576 18.3285 16.1576H14.9921C11.7102 16.1576 9.04993 18.8178 9.04993 22.0994C9.04993 25.3812 11.7102 28.0412 14.9921 28.0412H18.3285C15.0466 28.0412 12.3863 25.3811 12.3863 22.0994Z" fill="#440075"/>
</g>
<path d="M14.3986 24.4199C15.6747 24.4199 16.7091 23.3814 16.7091 22.1003C16.7091 20.8192 15.6747 19.7806 14.3986 19.7806C13.1226 19.7806 12.0881 20.8192 12.0881 22.1003C12.0881 23.3814 13.1226 24.4199 14.3986 24.4199Z" fill="#6BC1DD"/>
<path d="M29.6861 24.4195C30.9622 24.4195 31.9966 23.381 31.9966 22.0999C31.9966 20.8188 30.9622 19.7803 29.6861 19.7803C28.4101 19.7803 27.3756 20.8188 27.3756 22.0999C27.3756 23.381 28.4101 24.4195 29.6861 24.4195Z" fill="#6BC1DD"/>
<path d="M32.2704 57V47.0016C32.2704 46.3709 31.7542 45.8547 31.1235 45.8547H12.9169C12.2861 45.8547 11.77 46.3709 11.77 47.0016V57H32.2704Z" fill="#135693"/>
<path d="M24.0845 57V53.7753C24.0845 53.586 23.9296 53.4312 23.7405 53.4312H20.2998C20.1106 53.4312 19.9557 53.586 19.9557 53.7753V57H24.0845Z" fill="#FFC502"/>
<path d="M17.2034 49.4443H14.5656C14.1044 49.4443 13.7307 49.0706 13.7307 48.6094C13.7307 48.1481 14.1044 47.7744 14.5656 47.7744H17.2034C17.6647 47.7744 18.0384 48.1481 18.0384 48.6094C18.0384 49.0705 17.6647 49.4443 17.2034 49.4443Z" fill="#C5CCD3"/>
<path d="M16.0563 51.4825H14.5653C14.1041 51.4825 13.7303 51.1088 13.7303 50.6476C13.7303 50.1864 14.1041 49.8126 14.5653 49.8126H16.0563C16.5176 49.8126 16.8913 50.1864 16.8913 50.6476C16.8913 51.1088 16.5174 51.4825 16.0563 51.4825Z" fill="#C5CCD3"/>
<path d="M17.2031 53.5214H14.5653C14.1041 53.5214 13.7303 53.1475 13.7303 52.6864C13.7303 52.2252 14.1041 51.8514 14.5653 51.8514H17.2031C17.6643 51.8514 18.0381 52.2252 18.0381 52.6864C18.0381 53.1476 17.6643 53.5214 17.2031 53.5214Z" fill="#C5CCD3"/>
<path d="M15.7122 55.5594H14.5653C14.1041 55.5594 13.7303 55.1857 13.7303 54.7245C13.7303 54.2634 14.1041 53.8895 14.5653 53.8895H15.7122C16.1734 53.8895 16.5472 54.2634 16.5472 54.7245C16.5472 55.1857 16.1733 55.5594 15.7122 55.5594Z" fill="#C5CCD3"/>
<path d="M29.0962 54.7209H27.0603C26.5772 54.7209 26.1858 54.3293 26.1858 53.8462C26.1858 53.363 26.5773 52.9716 27.0603 52.9716H29.0962C29.5793 52.9716 29.9709 53.3631 29.9709 53.8462C29.9709 54.3294 29.5793 54.7209 29.0962 54.7209Z" fill="#E6E9ED"/>
<path d="M28.0786 51.6897C29.0931 51.6897 29.9155 50.8673 29.9155 49.8528C29.9155 48.8383 29.0931 48.0159 28.0786 48.0159C27.0641 48.0159 26.2416 48.8383 26.2416 49.8528C26.2416 50.8673 27.0641 51.6897 28.0786 51.6897Z" fill="#5DC647"/>
<path d="M24.1354 50.8132C24.1354 51.0072 23.9768 51.1657 23.783 51.1657H20.2574C20.0636 51.1657 19.905 51.0072 19.905 50.8132V48.8913C19.905 48.6973 20.0636 48.5387 20.2574 48.5387H23.783C23.9768 48.5387 24.1354 48.6973 24.1354 48.8913V50.8132Z" fill="#6BC1DD"/>
<path d="M71.1497 39L69.5424 34.5305H63.3886L61.8144 39H59.0403L65.0619 22.8395H67.9242L73.9458 39H71.1497ZM68.8489 32.2628L67.3407 27.8814C67.2306 27.5878 67.0765 27.1255 66.8784 26.4943C66.6875 25.8632 66.5554 25.4008 66.482 25.1072C66.2839 26.0099 65.994 26.997 65.6124 28.0685L64.1592 32.2628H68.8489ZM81.971 26.6044C82.4921 26.6044 82.9214 26.6411 83.259 26.7145L83.0058 29.1254C82.6389 29.0373 82.2573 28.9933 81.861 28.9933C80.8261 28.9933 79.9858 29.3308 79.34 30.006C78.7015 30.6812 78.3823 31.5582 78.3823 32.6371V39H75.7953V26.8246H77.8208L78.1621 28.9712H78.2942C78.6978 28.2447 79.2226 27.6686 79.8684 27.2429C80.5216 26.8172 81.2225 26.6044 81.971 26.6044ZM90.0623 37.1286C90.6935 37.1286 91.3246 37.0295 91.9558 36.8313V38.7798C91.6695 38.9046 91.2989 39.0073 90.8439 39.0881C90.3962 39.1761 89.9302 39.2202 89.4458 39.2202C86.9946 39.2202 85.769 37.9285 85.769 35.3452V28.7841H84.1067V27.6392L85.8901 26.6925L86.7708 24.1165H88.367V26.8246H91.8347V28.7841H88.367V35.3011C88.367 35.925 88.5211 36.3873 88.8293 36.6882C89.1449 36.9818 89.5559 37.1286 90.0623 37.1286ZM96.9867 39H94.3997V26.8246H96.9867V39ZM94.2455 23.5991C94.2455 23.1367 94.3703 22.7808 94.6198 22.5313C94.8767 22.2817 95.24 22.157 95.7097 22.157C96.1647 22.157 96.517 22.2817 96.7665 22.5313C97.0234 22.7808 97.1518 23.1367 97.1518 23.5991C97.1518 24.0394 97.0234 24.388 96.7665 24.6449C96.517 24.8944 96.1647 25.0192 95.7097 25.0192C95.24 25.0192 94.8767 24.8944 94.6198 24.6449C94.3703 24.388 94.2455 24.0394 94.2455 23.5991ZM106.806 28.7841H103.834V39H101.236V28.7841H99.2324V27.5732L101.236 26.7805V25.9879C101.236 24.5495 101.574 23.4853 102.249 22.7955C102.924 22.0982 103.955 21.7496 105.342 21.7496C106.252 21.7496 107.148 21.9001 108.028 22.201L107.346 24.1605C106.707 23.955 106.098 23.8523 105.518 23.8523C104.931 23.8523 104.502 24.0357 104.23 24.4027C103.966 24.7623 103.834 25.3054 103.834 26.032V26.8246H106.806V28.7841ZM111.463 39H108.876V26.8246H111.463V39ZM108.722 23.5991C108.722 23.1367 108.847 22.7808 109.096 22.5313C109.353 22.2817 109.716 22.157 110.186 22.157C110.641 22.157 110.993 22.2817 111.243 22.5313C111.5 22.7808 111.628 23.1367 111.628 23.5991C111.628 24.0394 111.5 24.388 111.243 24.6449C110.993 24.8944 110.641 25.0192 110.186 25.0192C109.716 25.0192 109.353 24.8944 109.096 24.6449C108.847 24.388 108.722 24.0394 108.722 23.5991ZM120.094 39.2202C118.251 39.2202 116.85 38.6844 115.888 37.6129C114.934 36.5341 114.457 34.9892 114.457 32.9783C114.457 30.9308 114.956 29.3565 115.954 28.2557C116.96 27.1548 118.409 26.6044 120.303 26.6044C121.587 26.6044 122.743 26.8429 123.77 27.32L122.989 29.4006C121.895 28.9749 120.993 28.7621 120.281 28.7621C118.174 28.7621 117.121 30.1602 117.121 32.9563C117.121 34.3214 117.382 35.3488 117.903 36.0387C118.431 36.7212 119.202 37.0625 120.215 37.0625C121.367 37.0625 122.457 36.7763 123.484 36.2038V38.4606C123.022 38.7321 122.526 38.9266 121.998 39.044C121.477 39.1615 120.842 39.2202 120.094 39.2202ZM128.933 39H126.346V26.8246H128.933V39ZM126.192 23.5991C126.192 23.1367 126.317 22.7808 126.567 22.5313C126.823 22.2817 127.187 22.157 127.656 22.157C128.111 22.157 128.464 22.2817 128.713 22.5313C128.97 22.7808 129.099 23.1367 129.099 23.5991C129.099 24.0394 128.97 24.388 128.713 24.6449C128.464 24.8944 128.111 25.0192 127.656 25.0192C127.187 25.0192 126.823 24.8944 126.567 24.6449C126.317 24.388 126.192 24.0394 126.192 23.5991ZM140.261 39L139.744 37.3047H139.656C139.069 38.0459 138.478 38.5523 137.883 38.8239C137.289 39.0881 136.526 39.2202 135.594 39.2202C134.397 39.2202 133.462 38.8973 132.786 38.2514C132.119 37.6056 131.785 36.6919 131.785 35.5103C131.785 34.2553 132.251 33.3086 133.183 32.6701C134.115 32.0316 135.535 31.683 137.443 31.6243L139.546 31.5582V30.9087C139.546 30.1308 139.362 29.551 138.995 29.1694C138.636 28.7804 138.074 28.5859 137.311 28.5859C136.687 28.5859 136.089 28.6777 135.516 28.8612C134.944 29.0446 134.394 29.2611 133.865 29.5107L133.029 27.6612C133.689 27.3163 134.412 27.0558 135.197 26.8796C135.983 26.6961 136.724 26.6044 137.421 26.6044C138.969 26.6044 140.136 26.942 140.922 27.6172C141.714 28.2924 142.111 29.3529 142.111 30.7987V39H140.261ZM136.408 37.2386C137.348 37.2386 138.1 36.9781 138.665 36.457C139.237 35.9286 139.524 35.1911 139.524 34.2443V33.1875L137.96 33.2536C136.742 33.2976 135.854 33.5031 135.296 33.87C134.746 34.2296 134.471 34.7837 134.471 35.5323C134.471 36.0754 134.632 36.4974 134.955 36.7983C135.278 37.0919 135.762 37.2386 136.408 37.2386ZM148.308 39H145.721V21.8707H148.308V39ZM158.15 39V22.9055H160.781V39H158.15ZM175.477 39H172.879V31.5142C172.879 30.5748 172.689 29.8739 172.307 29.4116C171.933 28.9492 171.335 28.718 170.513 28.718C169.419 28.718 168.619 29.041 168.113 29.6868C167.606 30.3326 167.353 31.4151 167.353 32.9343V39H164.766V26.8246H166.792L167.155 28.4208H167.287C167.654 27.841 168.175 27.3933 168.85 27.0778C169.525 26.7622 170.274 26.6044 171.096 26.6044C174.017 26.6044 175.477 28.0906 175.477 31.0629V39ZM183.613 37.1286C184.244 37.1286 184.875 37.0295 185.506 36.8313V38.7798C185.22 38.9046 184.849 39.0073 184.394 39.0881C183.947 39.1761 183.481 39.2202 182.996 39.2202C180.545 39.2202 179.319 37.9285 179.319 35.3452V28.7841H177.657V27.6392L179.44 26.6925L180.321 24.1165H181.917V26.8246H185.385V28.7841H181.917V35.3011C181.917 35.925 182.072 36.3873 182.38 36.6882C182.695 36.9818 183.106 37.1286 183.613 37.1286ZM193.267 39.2202C191.374 39.2202 189.891 38.6697 188.82 37.5689C187.756 36.4607 187.224 34.9379 187.224 33.0004C187.224 31.0115 187.719 29.4483 188.71 28.3107C189.7 27.1732 191.062 26.6044 192.794 26.6044C194.401 26.6044 195.671 27.0924 196.603 28.0685C197.535 29.0446 198.001 30.3877 198.001 32.0977V33.4957H189.888C189.924 34.6773 190.244 35.5874 190.845 36.2259C191.447 36.857 192.295 37.1726 193.388 37.1726C194.108 37.1726 194.775 37.1065 195.392 36.9744C196.016 36.835 196.684 36.6075 197.395 36.2919V38.3945C196.764 38.6954 196.126 38.9083 195.48 39.033C194.834 39.1578 194.097 39.2202 193.267 39.2202ZM192.794 28.5639C191.972 28.5639 191.311 28.8245 190.812 29.3455C190.321 29.8666 190.027 30.6262 189.932 31.6243H195.458C195.443 30.6188 195.201 29.8593 194.731 29.3455C194.262 28.8245 193.616 28.5639 192.794 28.5639ZM203.527 39H200.94V21.8707H203.527V39ZM209.824 39H207.237V21.8707H209.824V39ZM216.121 39H213.534V26.8246H216.121V39ZM213.38 23.5991C213.38 23.1367 213.505 22.7808 213.754 22.5313C214.011 22.2817 214.374 22.157 214.844 22.157C215.299 22.157 215.651 22.2817 215.901 22.5313C216.158 22.7808 216.286 23.1367 216.286 23.5991C216.286 24.0394 216.158 24.388 215.901 24.6449C215.651 24.8944 215.299 25.0192 214.844 25.0192C214.374 25.0192 214.011 24.8944 213.754 24.6449C213.505 24.388 213.38 24.0394 213.38 23.5991ZM230.113 26.8246V28.2447L228.032 28.63C228.223 28.8868 228.381 29.2024 228.505 29.5767C228.63 29.951 228.693 30.3473 228.693 30.7656C228.693 32.0206 228.26 33.0077 227.394 33.7269C226.528 34.4461 225.335 34.8058 223.816 34.8058C223.427 34.8058 223.075 34.7764 222.759 34.7177C222.201 35.0626 221.922 35.4663 221.922 35.9286C221.922 36.2075 222.051 36.4167 222.308 36.5561C222.572 36.6955 223.053 36.7653 223.75 36.7653H225.874C227.217 36.7653 228.238 37.0515 228.935 37.6239C229.632 38.1964 229.981 39.022 229.981 40.1009C229.981 41.4806 229.412 42.5447 228.274 43.2933C227.137 44.0419 225.493 44.4162 223.342 44.4162C221.684 44.4162 220.418 44.1226 219.545 43.5355C218.671 42.9484 218.235 42.1117 218.235 41.0256C218.235 40.277 218.469 39.6458 218.939 39.1321C219.416 38.6257 220.08 38.2734 220.932 38.0753C220.587 37.9285 220.3 37.6937 220.073 37.3707C219.853 37.0405 219.743 36.6955 219.743 36.3359C219.743 35.8809 219.871 35.4956 220.128 35.18C220.385 34.8645 220.766 34.5526 221.273 34.2443C220.642 33.9728 220.128 33.5324 219.732 32.9233C219.343 32.3068 219.148 31.5876 219.148 30.7656C219.148 29.4446 219.563 28.4208 220.392 27.6942C221.229 26.9677 222.418 26.6044 223.959 26.6044C224.304 26.6044 224.664 26.6301 225.038 26.6815C225.419 26.7255 225.706 26.7732 225.896 26.8246H230.113ZM220.546 40.8935C220.546 41.4512 220.796 41.8806 221.295 42.1815C221.801 42.4824 222.51 42.6328 223.42 42.6328C224.829 42.6328 225.878 42.431 226.568 42.0273C227.258 41.6237 227.603 41.0879 227.603 40.4201C227.603 39.8917 227.412 39.5137 227.03 39.2862C226.656 39.0661 225.955 38.956 224.928 38.956H222.968C222.227 38.956 221.636 39.1284 221.196 39.4734C220.763 39.8256 220.546 40.299 220.546 40.8935ZM221.658 30.7656C221.658 31.5289 221.853 32.116 222.242 32.527C222.638 32.938 223.203 33.1435 223.937 33.1435C225.434 33.1435 226.183 32.3435 226.183 30.7436C226.183 29.951 225.996 29.3419 225.621 28.9162C225.254 28.4832 224.693 28.2667 223.937 28.2667C223.188 28.2667 222.62 28.4795 222.231 28.9052C221.849 29.3308 221.658 29.951 221.658 30.7656ZM237.698 39.2202C235.804 39.2202 234.322 38.6697 233.25 37.5689C232.186 36.4607 231.654 34.9379 231.654 33.0004C231.654 31.0115 232.149 29.4483 233.14 28.3107C234.131 27.1732 235.492 26.6044 237.224 26.6044C238.831 26.6044 240.101 27.0924 241.033 28.0685C241.965 29.0446 242.431 30.3877 242.431 32.0977V33.4957H234.318C234.355 34.6773 234.674 35.5874 235.276 36.2259C235.878 36.857 236.725 37.1726 237.819 37.1726C238.538 37.1726 239.206 37.1065 239.822 36.9744C240.446 36.835 241.114 36.6075 241.826 36.2919V38.3945C241.195 38.6954 240.556 38.9083 239.91 39.033C239.264 39.1578 238.527 39.2202 237.698 39.2202ZM237.224 28.5639C236.402 28.5639 235.742 28.8245 235.243 29.3455C234.751 29.8666 234.457 30.6262 234.362 31.6243H239.888C239.874 30.6188 239.631 29.8593 239.162 29.3455C238.692 28.8245 238.046 28.5639 237.224 28.5639ZM256.082 39H253.484V31.5142C253.484 30.5748 253.293 29.8739 252.911 29.4116C252.537 28.9492 251.939 28.718 251.117 28.718C250.023 28.718 249.224 29.041 248.717 29.6868C248.211 30.3326 247.958 31.4151 247.958 32.9343V39H245.371V26.8246H247.396L247.759 28.4208H247.891C248.258 27.841 248.78 27.3933 249.455 27.0778C250.13 26.7622 250.878 26.6044 251.7 26.6044C254.621 26.6044 256.082 28.0906 256.082 31.0629V39ZM264.591 39.2202C262.749 39.2202 261.348 38.6844 260.386 37.6129C259.432 36.5341 258.955 34.9892 258.955 32.9783C258.955 30.9308 259.454 29.3565 260.452 28.2557C261.458 27.1548 262.907 26.6044 264.801 26.6044C266.085 26.6044 267.241 26.8429 268.268 27.32L267.487 29.4006C266.393 28.9749 265.49 28.7621 264.779 28.7621C262.672 28.7621 261.619 30.1602 261.619 32.9563C261.619 34.3214 261.88 35.3488 262.401 36.0387C262.929 36.7212 263.7 37.0625 264.713 37.0625C265.865 37.0625 266.955 36.7763 267.982 36.2038V38.4606C267.52 38.7321 267.024 38.9266 266.496 39.044C265.975 39.1615 265.34 39.2202 264.591 39.2202ZM276.161 39.2202C274.268 39.2202 272.785 38.6697 271.714 37.5689C270.65 36.4607 270.118 34.9379 270.118 33.0004C270.118 31.0115 270.613 29.4483 271.604 28.3107C272.595 27.1732 273.956 26.6044 275.688 26.6044C277.295 26.6044 278.565 27.0924 279.497 28.0685C280.429 29.0446 280.895 30.3877 280.895 32.0977V33.4957H272.782C272.818 34.6773 273.138 35.5874 273.74 36.2259C274.341 36.857 275.189 37.1726 276.282 37.1726C277.002 37.1726 277.67 37.1065 278.286 36.9744C278.91 36.835 279.578 36.6075 280.29 36.2919V38.3945C279.658 38.6954 279.02 38.9083 278.374 39.033C277.728 39.1578 276.991 39.2202 276.161 39.2202ZM275.688 28.5639C274.866 28.5639 274.206 28.8245 273.706 29.3455C273.215 29.8666 272.921 30.6262 272.826 31.6243H278.352C278.337 30.6188 278.095 29.8593 277.626 29.3455C277.156 28.8245 276.51 28.5639 275.688 28.5639Z" fill="#3A68B8"/>
</svg>
